<svg width="24" height="24" viewBox="0 0 24 24" fill="none" xmlns="http://www.w3.org/2000/svg">
<mask id="mask0_244_2448" style="mask-type:luminance" maskUnits="userSpaceOnUse" x="0" y="0" width="23" height="23">
<path d="M10.5 19C15.1945 19 19 15.1945 19 10.5C19 5.8055 15.1945 2 10.5 2C5.8055 2 2 5.8055 2 10.5C2 15.1945 5.8055 19 10.5 19Z" fill="white" stroke="white" stroke-width="4" stroke-linejoin="round"/>
<path d="M13.3284 7.1715C12.9573 6.79952 12.5165 6.50453 12.031 6.30348C11.5456 6.10244 11.0253 5.9993 10.4999 6C9.97449 5.9993 9.45414 6.10244 8.96873 6.30348C8.48332 6.50453 8.04242 6.79952 7.67139 7.1715" stroke="black" stroke-width="4" stroke-linecap="round" stroke-linejoin="round"/>
<path d="M16.6111 16.611L20.8536 20.8535" stroke="white" stroke-width="4" stroke-linecap="round" stroke-linejoin="round"/>
</mask>
<g mask="url(#mask0_244_2448)">
<path d="M0 0H24V24H0V0Z" fill="black"/>
</g>
</svg>
