<svg width="31" height="44" viewBox="0 0 31 44" fill="none" xmlns="http://www.w3.org/2000/svg">
<path d="M19.875 8.17598C20.6167 8.17598 21.3417 7.93623 21.9584 7.48703C22.5751 7.03784 23.0557 6.39938 23.3395 5.6524C23.6234 4.90542 23.6976 4.08346 23.5529 3.29046C23.4082 2.49747 23.0511 1.76906 22.5266 1.19735C22.0022 0.625631 21.334 0.236287 20.6066 0.0785514C19.8792 -0.0791846 19.1252 0.00177124 18.4399 0.311182C17.7547 0.620592 17.169 1.14456 16.757 1.81683C16.3449 2.48909 16.125 3.27946 16.125 4.08799C16.128 5.1712 16.524 6.20912 17.2266 6.97506C17.9292 7.74101 18.8814 8.17275 19.875 8.17598ZM13.125 36.5875L15 27.5939L18.9375 31.6819V43.9459H22.6875V28.6159L18.75 24.5279L19.875 18.396C21.1615 19.9985 22.7469 21.2833 24.5252 22.1645C26.3036 23.0457 28.234 23.503 30.1875 23.5059V19.418C28.5667 19.4448 26.968 19.0054 25.5526 18.1442C24.1372 17.283 22.9549 16.0303 22.125 14.5124L20.25 11.242C19.9176 10.6381 19.4518 10.1346 18.895 9.77758C18.3382 9.42053 17.7081 9.22126 17.0625 9.19798C16.5 9.19798 16.125 9.40238 15.5625 9.40238L5.8125 13.8992V23.5059H9.5625V16.5564L12.9375 15.1256L9.9375 31.6819L0.75 29.6379L0 33.7259L13.125 36.5875Z" fill="white"/>
</svg>
