<svg width="44" height="44" viewBox="0 0 44 44" fill="none" xmlns="http://www.w3.org/2000/svg">
<path fill-rule="evenodd" clip-rule="evenodd" d="M9.2446 6.39196C9.23444 6.272 9.20074 6.15521 9.14544 6.04828C9.09014 5.94134 9.01432 5.84634 8.9223 5.76871C8.83029 5.69108 8.72388 5.63233 8.60916 5.59583C8.49443 5.55933 8.37364 5.54578 8.25368 5.55596L6.42677 5.71179C6.18467 5.73232 5.96063 5.84813 5.80387 6.03376C5.64711 6.2194 5.57046 6.45967 5.59077 6.70179L5.89235 10.2484C5.76048 10.3403 5.65511 10.4654 5.58681 10.6109C5.51852 10.7564 5.48971 10.9174 5.50327 11.0776C5.51682 11.2378 5.57228 11.3916 5.66406 11.5236C5.75584 11.6556 5.88073 11.7611 6.02618 11.8296L6.34702 15.6081C6.35718 15.7282 6.3909 15.845 6.44626 15.952C6.50162 16.059 6.57753 16.1541 6.66964 16.2317C6.76176 16.3094 6.86828 16.3681 6.98311 16.4045C7.09793 16.441 7.21882 16.4544 7.33885 16.4441L9.16577 16.2883C9.4077 16.2675 9.63151 16.1516 9.78808 15.966C9.94464 15.7804 10.0212 15.5403 10.0009 15.2983L9.6626 11.3145C10.1295 11.2307 10.5887 11.1513 11.0404 11.0761C11.1375 12.5886 11.4162 15.1544 11.9323 17.5707C12.2614 19.1107 12.7124 20.7185 13.3394 21.9835C13.651 22.6142 14.0562 23.2595 14.5924 23.7692C15.0673 24.2202 15.708 24.619 16.5 24.7235V28.6945L16.2021 28.5872L15.9977 28.5139C15.0764 28.1839 14.1396 27.8484 13.4255 27.6678C13.0781 27.5798 12.5529 27.4652 12.0377 27.511C11.5978 27.5444 11.1782 27.7092 10.8332 27.984C10.5972 28.1762 10.4074 28.4188 10.2776 28.6941C10.1479 28.9693 10.0815 29.2702 10.0834 29.5745C10.0834 30.3289 10.3409 32.2695 10.56 33.8195C10.6951 34.7764 10.8357 35.7325 10.9817 36.6878L11.011 36.8794L11.0193 36.9298L11.0211 36.9426V36.9472L12.8334 36.6667L11.022 36.9481C11.0914 37.3931 11.3222 37.797 11.6703 38.0828C12.0184 38.3685 12.4596 38.5161 12.9096 38.4975C13.3596 38.4788 13.787 38.2951 14.1102 37.9814C14.4334 37.6678 14.6299 37.2461 14.6621 36.7969L15.0013 32.0522C16.0188 32.417 17.2086 32.8378 18.3819 33.1678C19.5489 33.496 20.8294 33.7728 22 33.7728C23.1706 33.7728 24.4512 33.496 25.619 33.1678C26.7832 32.8405 27.9611 32.4235 28.974 32.0614L29.3389 36.807C29.3737 37.255 29.5718 37.6747 29.8957 37.9862C30.2195 38.2978 30.6466 38.4795 31.0956 38.4969C31.5447 38.5144 31.9845 38.3662 32.3315 38.0807C32.6786 37.7952 32.9086 37.3921 32.978 36.9481L31.1667 36.6667L32.9789 36.9472V36.9417L32.9817 36.9289L32.989 36.8785L33.0184 36.686C33.1642 35.731 33.3048 34.7752 33.44 33.8186C33.66 32.2685 33.9167 30.328 33.9167 29.5745C33.9167 29.0336 33.7059 28.4213 33.1678 27.9831C32.8225 27.7081 32.4025 27.5433 31.9624 27.5101C31.4472 27.4643 30.9219 27.5789 30.5754 27.666C29.8604 27.8475 28.9245 28.183 28.0033 28.513L27.7989 28.5863L27.5 28.6935V24.7271C29.2325 24.5337 30.2821 23.1294 30.8614 22.012C31.5315 20.7176 31.9697 19.0814 32.2667 17.5331C32.7324 15.114 32.9166 12.574 32.9762 11.0871C33.4223 11.1605 33.876 11.2381 34.3374 11.32L33.9992 15.2974C33.9789 15.5395 34.0555 15.7798 34.2123 15.9654C34.369 16.151 34.5931 16.2668 34.8352 16.2874L36.6621 16.4432C36.9042 16.4635 37.1445 16.3869 37.3301 16.2301C37.5158 16.0734 37.6316 15.8493 37.6521 15.6072L37.9739 11.8287C38.1197 11.7606 38.2451 11.6553 38.3372 11.5233C38.4294 11.3912 38.485 11.2372 38.4986 11.0768C38.5122 10.9164 38.4832 10.7553 38.4145 10.6096C38.3459 10.464 38.2401 10.3391 38.1077 10.2475L38.4102 6.70088C38.4305 6.45861 38.3537 6.21821 38.1968 6.03255C38.0398 5.84689 37.8155 5.73118 37.5733 5.71088L35.7473 5.55504C35.6273 5.54486 35.5065 5.55841 35.3918 5.59491C35.2771 5.63142 35.1707 5.69016 35.0786 5.76779C34.9866 5.84543 34.9108 5.94042 34.8555 6.04736C34.8002 6.1543 34.7665 6.27108 34.7564 6.39104L34.4933 9.48571C33.9205 9.38495 33.347 9.2887 32.7727 9.19696C32.6357 8.94848 32.4428 8.7352 32.2094 8.57391C31.9759 8.41262 31.7082 8.30771 31.4273 8.26746C31.1465 8.22721 30.8601 8.2527 30.5907 8.34194C30.3214 8.43117 30.0764 8.58171 29.8751 8.78171C24.3045 8.07863 19.5883 8.07954 14.1158 8.77254C13.9145 8.57561 13.6705 8.4277 13.4028 8.34027C13.1352 8.25285 12.8509 8.22826 12.5722 8.26842C12.2935 8.30858 12.0278 8.4124 11.7957 8.57184C11.5635 8.73128 11.3713 8.94205 11.2338 9.18779C10.6685 9.27763 10.0928 9.37479 9.50677 9.47929L9.2446 6.39196ZM15.5174 16.8053C15.0908 14.7423 14.8114 12.6516 14.6814 10.549C19.7514 9.93213 24.1652 9.93213 29.3251 10.5619C29.2912 11.7829 29.1344 14.4064 28.666 16.841C28.391 18.272 28.0335 19.5003 27.6054 20.3262C27.3139 20.8881 27.115 21.0458 27.0481 21.0834H17.0904C16.984 20.9725 16.819 20.7479 16.6247 20.3555C16.2012 19.5003 15.8254 18.2445 15.5174 16.8053ZM26.125 15.125C26.125 16.2191 25.6904 17.2683 24.9168 18.0419C24.1432 18.8154 23.094 19.25 22 19.25C20.906 19.25 19.8568 18.8154 19.0832 18.0419C18.3096 17.2683 17.875 16.2191 17.875 15.125C17.875 14.031 18.3096 12.9818 19.0832 12.2082C19.8568 11.4346 20.906 11 22 11C23.094 11 24.1432 11.4346 24.9168 12.2082C25.6904 12.9818 26.125 14.031 26.125 15.125Z" fill="#8BDFB2"/>
</svg>
