<svg width="44" height="44" viewBox="0 0 44 44" fill="none" xmlns="http://www.w3.org/2000/svg">
<path d="M38.4542 16.5457L27.3625 5.45407L28.1417 4.6749C28.8445 3.97213 29.7153 3.62868 30.7542 3.64457C31.7931 3.66046 32.6639 4.01918 33.3667 4.72074L39.2792 10.6332C39.982 11.336 40.3334 12.1995 40.3334 13.2237C40.3334 14.248 39.982 15.1108 39.2792 15.8124L38.4542 16.5457ZM15.8584 39.2332C15.1556 39.936 14.2927 40.2874 13.2697 40.2874C12.2467 40.2874 11.3832 39.936 10.6792 39.2332L4.76669 33.3207C4.06391 32.618 3.71252 31.7551 3.71252 30.7321C3.71252 29.7091 4.06391 28.8456 4.76669 28.1416L5.50002 27.4082L16.5917 38.4999L15.8584 39.2332ZM22.5042 37.9499C22.1375 38.3166 21.7097 38.4999 21.2209 38.4999C20.732 38.4999 20.3042 38.3166 19.9375 37.9499L6.05002 24.0624C5.68336 23.6957 5.50002 23.268 5.50002 22.7791C5.50002 22.2902 5.68336 21.8624 6.05002 21.4957L8.66252 18.8374C9.02919 18.4707 9.46491 18.2874 9.96969 18.2874C10.4745 18.2874 10.9096 18.4707 11.275 18.8374L14.1625 21.7249L21.7709 14.1166L18.8834 11.2291C18.5167 10.8624 18.3334 10.4346 18.3334 9.94574C18.3334 9.45685 18.5167 9.02907 18.8834 8.6624L21.4959 6.00407C21.8625 5.6374 22.2982 5.45407 22.803 5.45407C23.3078 5.45407 23.7429 5.6374 24.1084 6.00407L37.9959 19.8916C38.3625 20.2582 38.5459 20.694 38.5459 21.1987C38.5459 21.7035 38.3625 22.1386 37.9959 22.5041L35.3375 25.1166C34.9709 25.4832 34.5431 25.6666 34.0542 25.6666C33.5653 25.6666 33.1375 25.4832 32.7709 25.1166L29.8834 22.2291L22.275 29.8374L25.1625 32.7249C25.5292 33.0916 25.7125 33.5267 25.7125 34.0302C25.7125 34.5338 25.5292 34.9695 25.1625 35.3374L22.5042 37.9499Z" fill="#8BDFB2"/>
</svg>
