<svg width="80" height="80" viewBox="0 0 80 80" fill="none" xmlns="http://www.w3.org/2000/svg">
<circle opacity="0.9" cx="40" cy="40" r="40" fill="#FFD554"/>
<path d="M52 11V12.6421C52 20.5464 48.4182 24.1368 44.0004 24.1368H42.7325C42.8738 21.6638 43.4991 20.1671 45.131 18.3887C45.9337 17.5142 45.8657 17.0093 45.4704 17.2991C42.7478 19.2943 41.3953 21.9906 41.3353 26.2962L41.3333 26.6H40C40 25.4809 40.0773 24.4653 40.2307 23.5358C40.0778 22.4734 40.0011 21.0316 40.0007 19.2105C40.0007 14.6759 42.9852 11 46.667 11C48.0002 11 49.3335 11.8211 52 11Z" fill="#8BDFB2"/>
<path d="M25.6 11V12.6421C25.6 20.5464 29.8982 24.1368 35.1995 24.1368H36.721C36.5514 21.6638 35.801 20.1671 33.8427 18.3887C32.8796 17.5142 32.9612 17.0093 33.4356 17.2991C36.7026 19.2943 38.3257 21.9906 38.3977 26.2962L38.4001 26.6H40C40 25.4809 39.9072 24.4653 39.7232 23.5358C39.9067 22.4734 39.9987 21.0316 39.9992 19.2105C39.9992 14.6759 36.4178 11 31.9996 11C30.3997 11 28.7998 11.8211 25.6 11Z" fill="#B39CD0"/>
<path fill-rule="evenodd" clip-rule="evenodd" d="M60 45.8V60.212C59.9999 60.8009 59.8492 61.3799 59.5624 61.8941C59.2755 62.4083 58.8619 62.8407 58.361 63.1501C57.86 63.4595 57.2882 63.6357 56.7 63.6619C56.1117 63.6882 55.5265 63.5636 55 63.3C54.0885 62.8443 53.0727 62.6376 52.0556 62.7008C51.0384 62.764 50.0561 63.0949 49.208 63.66C48.258 64.2933 47.1417 64.6312 46 64.6312C44.8583 64.6312 43.742 64.2933 42.792 63.66L42.086 63.192C41.4682 62.7804 40.7424 62.5607 40 62.5607C39.2576 62.5607 38.5318 62.7804 37.914 63.192L37.208 63.662C36.258 64.2953 35.1417 64.6332 34 64.6332C32.8583 64.6332 31.742 64.2953 30.792 63.662C29.9437 63.0966 28.961 62.7654 27.9435 62.7022C26.9259 62.639 25.9098 62.8459 24.998 63.302C24.4712 63.5653 23.8859 63.6895 23.2976 63.6628C22.7093 63.6362 22.1376 63.4595 21.6368 63.1497C21.136 62.8399 20.7227 62.4072 20.4363 61.8927C20.1498 61.3781 19.9996 60.7989 20 60.21V45.8C20 34.754 28.954 25.8 40 25.8C51.046 25.8 60 34.754 60 45.8ZM34.894 50.596C34.7363 50.4733 34.5556 50.3833 34.3627 50.3314C34.1697 50.2795 33.9683 50.2666 33.7703 50.2936C33.5723 50.3206 33.3817 50.3868 33.2097 50.4885C33.0376 50.5902 32.8876 50.7252 32.7685 50.8856C32.6494 51.0461 32.5635 51.2287 32.5159 51.4228C32.4683 51.6169 32.46 51.8185 32.4915 52.0159C32.5229 52.2132 32.5935 52.4023 32.699 52.572C32.8045 52.7417 32.9429 52.8886 33.106 53.004C35.0965 54.4923 37.5146 55.2976 40 55.3C42.4854 55.2976 44.9035 54.4923 46.894 53.004C47.0571 52.8886 47.1955 52.7417 47.301 52.572C47.4065 52.4023 47.4771 52.2132 47.5085 52.0159C47.54 51.8185 47.5317 51.6169 47.4841 51.4228C47.4365 51.2287 47.3506 51.0461 47.2315 50.8856C47.1124 50.7252 46.9624 50.5902 46.7903 50.4885C46.6183 50.3868 46.4277 50.3206 46.2297 50.2936C46.0317 50.2666 45.8303 50.2795 45.6373 50.3314C45.4444 50.3833 45.2637 50.4733 45.106 50.596C43.6324 51.7 41.8413 52.2977 40 52.3C38.1587 52.2977 36.3676 51.7 34.894 50.596ZM48 40.8C48 42.456 47.104 43.8 46 43.8C44.896 43.8 44 42.456 44 40.8C44 39.144 44.896 37.8 46 37.8C47.104 37.8 48 39.144 48 40.8ZM34 43.8C35.104 43.8 36 42.456 36 40.8C36 39.144 35.104 37.8 34 37.8C32.896 37.8 32 39.144 32 40.8C32 42.456 32.896 43.8 34 43.8Z" fill="white"/>
<rect x="28" y="34.425" width="24" height="24" fill="white"/>
<path d="M35.5322 45.4682C35.3943 45.3911 35.2362 45.3346 35.0673 45.3019C34.8985 45.2693 34.7223 45.2612 34.549 45.2781C34.3758 45.2951 34.209 45.3367 34.0584 45.4006C33.9079 45.4645 33.7767 45.5494 33.6724 45.6503C33.5682 45.7511 33.4931 45.8659 33.4514 45.9879C33.4098 46.1099 33.4025 46.2367 33.43 46.3607C33.4576 46.4847 33.5193 46.6036 33.6116 46.7103C33.704 46.8169 33.825 46.9093 33.9678 46.9818C35.7095 47.9173 37.8253 48.4235 40 48.425C42.1747 48.4235 44.2905 47.9173 46.0322 46.9818C46.175 46.9093 46.296 46.8169 46.3884 46.7103C46.4807 46.6036 46.5424 46.4847 46.57 46.3607C46.5975 46.2367 46.5902 46.1099 46.5486 45.9879C46.5069 45.8659 46.4318 45.7511 46.3276 45.6503C46.2233 45.5494 46.0921 45.4645 45.9416 45.4006C45.791 45.3367 45.6242 45.2951 45.451 45.2781C45.2777 45.2612 45.1015 45.2693 44.9327 45.3019C44.7638 45.3346 44.6057 45.3911 44.4678 45.4682C43.1783 46.1622 41.6111 46.5379 40 46.5393C38.3889 46.5379 36.8217 46.1622 35.5322 45.4682ZM47 39.3108C47 40.3517 46.216 41.1965 45.25 41.1965C44.284 41.1965 43.5 40.3517 43.5 39.3108C43.5 38.2698 44.284 37.425 45.25 37.425C46.216 37.425 47 38.2698 47 39.3108ZM34.75 41.1965C35.716 41.1965 36.5 40.3517 36.5 39.3108C36.5 38.2698 35.716 37.425 34.75 37.425C33.784 37.425 33 38.2698 33 39.3108C33 40.3517 33.784 41.1965 34.75 41.1965Z" fill="black"/>
</svg>
