<svg width="80" height="80" viewBox="0 0 80 80" fill="none" xmlns="http://www.w3.org/2000/svg">
<circle opacity="0.9" cx="40" cy="40" r="40" fill="#FFD554"/>
<path d="M38.8147 40.4133C38.8147 39.9418 39.002 39.4895 39.3355 39.1561C39.669 38.8226 40.1212 38.6353 40.5928 38.6353C41.0644 38.6353 41.5166 38.4479 41.8501 38.1145C42.1835 37.781 42.3709 37.3288 42.3709 36.8572C42.3709 36.3856 42.1835 35.9334 41.8501 35.5999C41.5166 35.2665 41.0644 35.0791 40.5928 35.0791C39.1781 35.0791 37.8213 35.6411 36.8209 36.6415C35.8206 37.6418 35.2586 38.9986 35.2586 40.4133C35.2586 40.8849 35.4459 41.3372 35.7794 41.6706C36.1128 42.0041 36.5651 42.1914 37.0366 42.1914C37.5082 42.1914 37.9605 42.0041 38.2939 41.6706C38.6274 41.3372 38.8147 40.8849 38.8147 40.4133ZM43.5562 16.113C36.1666 16.113 29.7774 20.4397 26.2852 26.7672C25.7163 27.7985 24.8414 28.6947 23.7817 29.4106C19.2559 32.4737 16.2925 37.8766 16.2925 43.9695C16.2925 53.3245 23.3265 61.1575 32.2951 61.1575C33.0648 61.1575 33.8195 61.1006 34.5592 60.9868C36.6322 60.6685 38.7531 60.9824 40.6449 61.8877C43.3087 63.1982 46.2844 63.742 49.2394 63.4581C52.1945 63.1743 55.0123 62.074 57.3779 60.2804C59.7434 58.4868 61.5634 56.0706 62.6344 53.3019C63.7054 50.5331 63.985 47.5211 63.4422 44.6025C63.2732 43.7581 63.254 42.8907 63.3853 42.0397C63.6002 40.7579 63.7077 39.4453 63.7077 38.1018C63.7077 26.12 54.8411 16.113 43.5562 16.113ZM52.4466 41.006C52.4466 42.4849 52.1553 43.9492 51.5894 45.3155C51.0235 46.6817 50.194 47.9232 49.1483 48.9688C48.1026 50.0145 46.8612 50.844 45.4949 51.4099C44.1287 51.9759 42.6643 52.2671 41.1855 52.2671C39.7066 52.2671 38.2423 51.9759 36.876 51.4099C35.5098 50.844 34.2684 50.0145 33.2227 48.9688C32.177 47.9232 31.3475 46.6817 30.7816 45.3155C30.2156 43.9492 29.9244 42.4849 29.9244 41.006C29.9244 38.0194 31.1108 35.1551 33.2227 33.0432C35.3345 30.9314 38.1988 29.7449 41.1855 29.7449C44.1721 29.7449 47.0364 30.9314 49.1483 33.0432C51.2602 35.1551 52.4466 38.0194 52.4466 41.006Z" fill="white"/>
</svg>
