<svg width="59" height="24" viewBox="0 0 59 24" fill="none" xmlns="http://www.w3.org/2000/svg">
<rect x="1.30765" y="1.15385" width="56.5385" height="20.7692" rx="10.3846" fill="white" stroke="#17A2A2" stroke-width="2.30769"/>
<path d="M1.15385 11.5385C1.15385 5.8032 5.8032 1.15385 11.5385 1.15385C17.2737 1.15385 21.9231 5.8032 21.9231 11.5385C21.9231 17.2737 17.2737 21.9231 11.5385 21.9231C5.8032 21.9231 1.15385 17.2737 1.15385 11.5385Z" fill="white" stroke="#17A2A2" stroke-width="2.30769"/>
<path d="M13.6056 15.1253H9.08641C8.88449 15.1253 8.65852 14.9666 8.59122 14.7743L6.60083 9.20699C6.31718 8.40892 6.64891 8.16372 7.3316 8.65411L9.2066 9.99546C9.5191 10.2118 9.87487 10.1012 10.0095 9.75026L10.8556 7.49546C11.1249 6.7743 11.572 6.7743 11.8412 7.49546L12.6874 9.75026C12.822 10.1012 13.1778 10.2118 13.4854 9.99546L15.2451 8.74065C15.9951 8.20219 16.3556 8.47622 16.0479 9.34642L14.1056 14.7839C14.0335 14.9666 13.8076 15.1253 13.6056 15.1253Z" stroke="#17A2A2" stroke-width="0.923077" stroke-linecap="round" stroke-linejoin="round"/>
<path d="M8.7019 16.5771H13.9904" stroke="#17A2A2" stroke-width="0.923077" stroke-linecap="round" stroke-linejoin="round"/>
<path d="M10.1443 12.731H12.5481" stroke="#17A2A2" stroke-width="0.923077" stroke-linecap="round" stroke-linejoin="round"/>
</svg>
