<svg width="56" height="56" viewBox="0 0 56 56" fill="none" xmlns="http://www.w3.org/2000/svg">
<path d="M26.8333 28.5833C26.8333 28.1192 27.0177 27.674 27.3459 27.3459C27.674 27.0177 28.1192 26.8333 28.5833 26.8333C29.0474 26.8333 29.4925 26.6489 29.8207 26.3207C30.1489 25.9925 30.3333 25.5474 30.3333 25.0833C30.3333 24.6192 30.1489 24.174 29.8207 23.8459C29.4925 23.5177 29.0474 23.3333 28.5833 23.3333C27.1909 23.3333 25.8555 23.8864 24.871 24.871C23.8864 25.8555 23.3333 27.1909 23.3333 28.5833C23.3333 29.0474 23.5177 29.4925 23.8459 29.8207C24.174 30.1489 24.6192 30.3333 25.0833 30.3333C25.5474 30.3333 25.9925 30.1489 26.3207 29.8207C26.6489 29.4925 26.8333 29.0474 26.8333 28.5833ZM31.5 4.66663C24.227 4.66663 17.9386 8.92496 14.5016 15.1526C13.9416 16.1676 13.0806 17.0496 12.0376 17.7543C7.58329 20.769 4.66663 26.0866 4.66663 32.0833C4.66663 41.2906 11.5896 49 20.4166 49C21.1742 49 21.917 48.944 22.645 48.832C24.6853 48.5187 26.7726 48.8277 28.6346 49.7186C31.2563 51.0085 34.1851 51.5436 37.0934 51.2643C40.0018 50.9849 42.7752 49.902 45.1034 48.1367C47.4316 46.3715 49.2229 43.9934 50.2769 41.2683C51.331 38.5433 51.6062 35.5788 51.072 32.7063C50.9057 31.8753 50.8867 31.0215 51.016 30.184C51.2275 28.9224 51.3333 27.6305 51.3333 26.3083C51.3333 14.5156 42.6066 4.66663 31.5 4.66663ZM40.25 29.1666C40.25 30.6221 39.9633 32.0633 39.4063 33.408C38.8493 34.7527 38.0329 35.9745 37.0037 37.0037C35.9745 38.0329 34.7527 38.8493 33.408 39.4063C32.0633 39.9633 30.6221 40.25 29.1666 40.25C27.7111 40.25 26.2699 39.9633 24.9252 39.4063C23.5805 38.8493 22.3587 38.0329 21.3295 37.0037C20.3003 35.9745 19.484 34.7527 18.927 33.408C18.37 32.0633 18.0833 30.6221 18.0833 29.1666C18.0833 26.2271 19.251 23.4081 21.3295 21.3295C23.4081 19.251 26.2271 18.0833 29.1666 18.0833C32.1061 18.0833 34.9252 19.251 37.0037 21.3295C39.0823 23.4081 40.25 26.2271 40.25 29.1666Z" fill="#FFD554"/>
</svg>
