<svg width="44" height="44" viewBox="0 0 44 44" fill="none" xmlns="http://www.w3.org/2000/svg">
<path d="M22.0001 2.0625C16.1735 2.0625 12.418 5.79734 10.6219 10.4672C8.90318 14.9359 8.83443 20.2812 10.0977 24.518L11.318 23.1344C10.4501 19.3961 10.6219 14.7812 12.0657 11.0172C13.7071 6.74953 16.818 3.60938 22.0001 3.60938C27.1735 3.60938 30.293 6.74953 31.9344 11.0172C33.3782 14.7812 33.5501 19.3961 32.6821 23.1344L33.9024 24.518C35.1657 20.2812 35.0969 14.9359 33.3782 10.4672C31.5821 5.79734 27.8266 2.0625 22.0001 2.0625ZM22.0001 10.0375C20.436 10.0375 19.061 11.5672 19.061 13.6125C19.061 15.6578 20.436 17.1875 22.0001 17.1875C23.5641 17.1875 24.9391 15.6578 24.9391 13.6125C24.9391 11.5672 23.5641 10.0375 22.0001 10.0375ZM19.8774 18.1328C18.3907 18.4594 17.1876 19.0094 16.9641 19.1125L10.5532 26.3312L11.2665 27.7578L18.6485 21.8539V35.8359H21.2266V30.3359H22.7735V41.9375H25.3516V21.8539L32.7337 27.7578L33.4469 26.3312L27.036 19.1125C26.8126 19.0094 25.6094 18.4594 24.1227 18.1328C23.4954 18.5109 22.7735 18.7344 22.0001 18.7344C21.2266 18.7344 20.5047 18.5109 19.8774 18.1328Z" fill="#8BDFB2"/>
</svg>
