<svg width="243" height="291" viewBox="0 0 243 291" fill="none" xmlns="http://www.w3.org/2000/svg">
<path d="M182.25 0V8.10859C182.25 47.1393 164.117 64.8688 141.752 64.8688H135.333C136.049 52.6572 139.214 45.2662 147.476 36.4846C151.539 32.1668 151.195 29.6734 149.194 31.1046C135.411 40.9565 128.563 54.2708 128.26 75.5316L128.25 77.0317H121.5C121.5 71.5056 121.891 66.4905 122.668 61.901C121.894 56.6548 121.506 49.5354 121.503 40.543C121.503 18.1511 136.612 0 155.252 0C162.001 0 168.751 4.0543 182.25 0Z" fill="#FFD554"/>
<path d="M48.6 0V8.10859C48.6 47.1393 70.3594 64.8688 97.1973 64.8688H104.9C104.041 52.6572 100.243 45.2662 90.3289 36.4846C85.4529 32.1668 85.866 29.6734 88.2675 31.1046C104.807 40.9565 113.024 54.2708 113.388 75.5316L113.4 77.0317H121.5C121.5 71.5056 121.03 66.4905 120.099 61.901C121.028 56.6548 121.493 49.5354 121.496 40.543C121.496 18.1511 103.365 0 80.9982 0C72.8986 0 64.7991 4.0543 48.6 0Z" fill="#B39CD0"/>
<path fill-rule="evenodd" clip-rule="evenodd" d="M222.75 171.84V243.005C222.749 245.913 221.987 248.772 220.534 251.311C219.082 253.851 216.989 255.985 214.452 257.513C211.916 259.041 209.022 259.911 206.044 260.041C203.066 260.17 200.103 259.555 197.437 258.254C192.823 256.003 187.681 254.982 182.531 255.295C177.382 255.607 172.409 257.241 168.115 260.031C163.306 263.158 157.655 264.827 151.875 264.827C146.095 264.827 140.444 263.158 135.634 260.031L132.06 257.72C128.933 255.688 125.258 254.603 121.5 254.603C117.742 254.603 114.067 255.688 110.94 257.72L107.365 260.041C102.556 263.168 96.9051 264.837 91.125 264.837C85.3449 264.837 79.6941 263.168 74.8845 260.041C70.59 257.249 65.615 255.614 60.4637 255.302C55.3125 254.989 50.1682 256.011 45.5524 258.264C42.8856 259.564 39.9223 260.177 36.9441 260.045C33.9659 259.913 31.0717 259.041 28.5364 257.511C26.0011 255.981 23.9089 253.845 22.4586 251.304C21.0083 248.764 20.248 245.903 20.25 242.996V171.84C20.25 117.296 65.5796 73.0815 121.5 73.0815C177.42 73.0815 222.75 117.296 222.75 171.84ZM95.6509 195.522C94.8525 194.916 93.938 194.472 92.9611 194.216C91.9842 193.959 90.9646 193.896 89.9622 194.029C88.9598 194.162 87.9948 194.489 87.1239 194.991C86.2529 195.493 85.4936 196.16 84.8905 196.952C84.2874 197.744 83.8527 198.646 83.6118 199.605C83.371 200.563 83.3289 201.559 83.4881 202.533C83.6473 203.508 84.0045 204.441 84.5387 205.279C85.073 206.117 85.7735 206.843 86.5991 207.413C96.6762 214.762 108.918 218.738 121.5 218.75C134.082 218.738 146.324 214.762 156.401 207.413C157.227 206.843 157.927 206.117 158.461 205.279C158.996 204.441 159.353 203.508 159.512 202.533C159.671 201.559 159.629 200.563 159.388 199.605C159.147 198.646 158.713 197.744 158.11 196.952C157.506 196.16 156.747 195.493 155.876 194.991C155.005 194.489 154.04 194.162 153.038 194.029C152.035 193.896 151.016 193.959 150.039 194.216C149.062 194.472 148.148 194.916 147.349 195.522C139.889 200.974 130.821 203.925 121.5 203.937C112.179 203.925 103.111 200.974 95.6509 195.522ZM162 147.15C162 155.328 157.464 161.964 151.875 161.964C146.286 161.964 141.75 155.328 141.75 147.15C141.75 138.973 146.286 132.337 151.875 132.337C157.464 132.337 162 138.973 162 147.15ZM91.125 161.964C96.714 161.964 101.25 155.328 101.25 147.15C101.25 138.973 96.714 132.337 91.125 132.337C85.536 132.337 81 138.973 81 147.15C81 155.328 85.536 161.964 91.125 161.964Z" fill="white"/>
<rect x="60.75" y="115.671" width="121.5" height="118.51" fill="white"/>
<path d="M102.852 183.226C102.261 182.895 101.584 182.653 100.86 182.513C100.136 182.373 99.3812 182.338 98.6387 182.411C97.8961 182.484 97.1813 182.662 96.5362 182.936C95.891 183.21 95.3286 183.574 94.8818 184.006C94.4351 184.438 94.1131 184.93 93.9347 185.453C93.7563 185.976 93.7251 186.519 93.843 187.051C93.961 187.582 94.2255 188.091 94.6213 188.549C95.017 189.006 95.5359 189.402 96.1475 189.713C103.612 193.722 112.68 195.891 122 195.898C131.32 195.891 140.388 193.722 147.852 189.713C148.464 189.402 148.983 189.006 149.379 188.549C149.774 188.091 150.039 187.582 150.157 187.051C150.275 186.519 150.244 185.976 150.065 185.453C149.887 184.93 149.565 184.438 149.118 184.006C148.671 183.574 148.109 183.21 147.464 182.936C146.819 182.662 146.104 182.484 145.361 182.411C144.619 182.338 143.864 182.373 143.14 182.513C142.416 182.653 141.739 182.895 141.148 183.226C135.621 186.2 128.905 187.81 122 187.816C115.095 187.81 108.379 186.2 102.852 183.226ZM152 156.837C152 161.298 148.64 164.918 144.5 164.918C140.36 164.918 137 161.298 137 156.837C137 152.375 140.36 148.755 144.5 148.755C148.64 148.755 152 152.375 152 156.837ZM99.5 164.918C103.64 164.918 107 161.298 107 156.837C107 152.375 103.64 148.755 99.5 148.755C95.36 148.755 92 152.375 92 156.837C92 161.298 95.36 164.918 99.5 164.918Z" fill="black"/>
</svg>
