<svg width="44" height="44" viewBox="0 0 44 44" fill="none" xmlns="http://www.w3.org/2000/svg">
<path d="M26.5834 9.16659C26.5834 10.3822 26.1005 11.5479 25.2409 12.4075C24.3814 13.267 23.2156 13.7499 22 13.7499C20.7844 13.7499 19.6187 13.267 18.7591 12.4075C17.8996 11.5479 17.4167 10.3822 17.4167 9.16659C17.4167 7.95101 17.8996 6.78522 18.7591 5.92568C19.6187 5.06614 20.7844 4.58325 22 4.58325C23.2156 4.58325 24.3814 5.06614 25.2409 5.92568C26.1005 6.78522 26.5834 7.95101 26.5834 9.16659ZM28.4167 39.4166C28.4167 39.6597 28.3201 39.8929 28.1482 40.0648C27.9763 40.2367 27.7431 40.3333 27.5 40.3333H11.7847C11.2156 40.3332 10.662 40.1478 10.2078 39.805C9.75353 39.4622 9.42334 38.9808 9.26721 38.4335C9.11108 37.8863 9.13751 37.3031 9.3425 36.7722C9.54749 36.2413 9.91987 35.7917 10.4033 35.4914L15.2469 32.4829C15.6442 32.2362 15.9719 31.8922 16.1992 31.4835C16.4265 31.0748 16.5458 30.6149 16.5459 30.1473V29.3333H18.722C19.6944 29.333 20.6269 28.9466 21.3144 28.2589L22 27.5742L22.6848 28.2589C23.0254 28.5996 23.4298 28.8699 23.8749 29.0542C24.3201 29.2386 24.7971 29.3334 25.2789 29.3333H27.5V30.1509C27.5002 30.6172 27.6189 31.0757 27.845 31.4835C28.0711 31.8913 28.3971 32.2349 28.7925 32.482L33.6013 35.4878C34.0844 35.7893 34.4561 36.24 34.6603 36.7717C34.8645 37.3033 34.89 37.8869 34.733 38.4343C34.576 38.9817 34.245 39.4632 33.7901 39.8058C33.3352 40.1484 32.7812 40.3335 32.2117 40.3333H30.0942C30.195 40.0463 30.25 39.7374 30.25 39.4166V39.1874C30.2499 38.5213 30.0081 37.8779 29.5694 37.3767C29.1307 36.8755 28.525 36.5505 27.8649 36.4622L15.7511 34.8415C15.5121 34.8131 15.2715 34.8799 15.0812 35.0274C14.891 35.1749 14.7665 35.3913 14.7344 35.6298C14.7024 35.8684 14.7655 36.11 14.9101 36.3024C15.0547 36.4949 15.2692 36.6227 15.5073 36.6583L27.6219 38.279C27.8419 38.3085 28.0438 38.4169 28.1899 38.5839C28.3361 38.751 28.4167 38.9654 28.4167 39.1874V39.4166ZM23.9819 26.9628L22.9167 25.8976V22.4674C23.0536 22.5463 23.1801 22.6434 23.2962 22.7589L25.0186 24.4823C25.1906 24.6538 25.4237 24.7501 25.6667 24.7499H28.4167C28.5729 24.7498 28.7265 24.7098 28.8629 24.6337C28.9992 24.5576 29.1139 24.4479 29.196 24.3151C29.2781 24.1822 29.3249 24.0305 29.3319 23.8745C29.339 23.7185 29.306 23.5632 29.2362 23.4235L28.3195 21.5902C28.268 21.4787 28.1947 21.3788 28.1038 21.2962C28.013 21.2136 27.9065 21.1502 27.7906 21.1095C27.6748 21.0689 27.552 21.052 27.4294 21.0597C27.3069 21.0675 27.1872 21.0998 27.0774 21.1547C26.9676 21.2096 26.8699 21.286 26.7902 21.3793C26.7105 21.4727 26.6504 21.5811 26.6133 21.6982C26.5763 21.8152 26.5632 21.9385 26.5747 22.0607C26.5863 22.183 26.6222 22.3016 26.6805 22.4097L26.9335 22.9166H26.0462L24.5923 21.4628C23.9047 20.7754 22.9723 20.3892 22 20.3892C21.0277 20.3892 20.0953 20.7754 19.4077 21.4628L17.9539 22.9166H17.0665L17.3195 22.4097C17.3778 22.3016 17.4138 22.183 17.4253 22.0607C17.4368 21.9385 17.4237 21.8152 17.3867 21.6982C17.3497 21.5811 17.2895 21.4727 17.2098 21.3793C17.1301 21.286 17.0324 21.2096 16.9226 21.1547C16.8128 21.0998 16.6931 21.0675 16.5706 21.0597C16.4481 21.052 16.3253 21.0689 16.2094 21.1095C16.0936 21.1502 15.987 21.2136 15.8962 21.2962C15.8053 21.3788 15.732 21.4787 15.6805 21.5902L14.7639 23.4235C14.694 23.5632 14.6611 23.7185 14.6681 23.8745C14.6751 24.0305 14.7219 24.1822 14.804 24.3151C14.8861 24.4479 15.0008 24.5576 15.1372 24.6337C15.2736 24.7098 15.4272 24.7498 15.5834 24.7499H18.3334C18.5764 24.7499 18.8096 24.6533 18.9814 24.4813L20.7039 22.7589C20.8206 22.6434 20.9471 22.5463 21.0834 22.4674V25.8976L20.0182 26.9628C19.6744 27.3066 19.2082 27.4998 18.722 27.4999H13.1872C12.8891 27.4999 12.5954 27.4272 12.3318 27.2881C12.0681 27.149 11.8423 26.9477 11.674 26.7017C11.5057 26.4556 11.3999 26.1722 11.3658 25.876C11.3318 25.5799 11.3704 25.2798 11.4785 25.002L14.2322 17.9208C14.5 17.2322 14.9696 16.6406 15.5794 16.2235C16.1891 15.8064 16.9107 15.5832 17.6495 15.5833H26.3505C27.0893 15.5832 27.8109 15.8064 28.4207 16.2235C29.0305 16.6406 29.5 17.2322 29.7678 17.9208L32.5224 25.002C32.6306 25.28 32.6692 25.5802 32.6351 25.8765C32.6009 26.1728 32.495 26.4563 32.3265 26.7024C32.1579 26.9485 31.9319 27.1498 31.668 27.2888C31.4041 27.4277 31.1102 27.5002 30.8119 27.4999H25.2771C24.7909 27.4998 24.3247 27.3066 23.9809 26.9628" fill="#8BDFB2"/>
</svg>
