<svg width="44" height="44" viewBox="0 0 44 44" fill="none" xmlns="http://www.w3.org/2000/svg">
<path d="M12.8333 42.1667L18.4708 13.6583C18.6542 12.7722 19.0667 12.1073 19.7084 11.6637C20.35 11.22 21.0222 10.9988 21.725 11C22.4278 11.0012 23.0774 11.154 23.6738 11.4583C24.2703 11.7627 24.7512 12.221 25.1167 12.8333L26.95 15.7667C27.5 16.6528 28.2107 17.4552 29.0822 18.1738C29.9536 18.8925 30.954 19.4193 32.0833 19.7542V16.5H34.8333V42.1667H32.0833V23.5583C30.6167 23.2222 29.257 22.6875 28.0042 21.9542C26.7514 21.2208 25.6667 20.3195 24.75 19.25L23.65 24.75L27.5 28.4167V42.1667H23.8333V31.1667L19.9833 27.5L16.6834 42.1667H12.8333ZM13.6125 24.0625L9.71668 23.3292C9.22779 23.2375 8.84585 22.9851 8.57085 22.572C8.29585 22.1589 8.20418 21.6932 8.29585 21.175L9.67085 13.9792C9.85418 13.0014 10.3736 12.2296 11.2292 11.6637C12.0847 11.0978 13.0014 10.9071 13.9792 11.0917L16.0875 11.5042L13.6125 24.0625ZM24.75 10.0833C23.7417 10.0833 22.8788 9.72462 22.1614 9.00718C21.4439 8.28973 21.0846 7.42623 21.0834 6.41668C21.0821 5.40712 21.4415 4.54423 22.1614 3.82801C22.8812 3.11179 23.7441 2.75246 24.75 2.75001C25.7559 2.74757 26.6194 3.1069 27.3405 3.82801C28.0616 4.54912 28.4203 5.41201 28.4167 6.41668C28.413 7.42135 28.0543 8.28485 27.3405 9.00718C26.6267 9.72951 25.7632 10.0882 24.75 10.0833Z" fill="#8BDFB2"/>
</svg>
