<svg width="24" height="22" viewBox="0 0 24 22" fill="none" xmlns="http://www.w3.org/2000/svg">
<path fill-rule="evenodd" clip-rule="evenodd" d="M10.4447 1.16814C11.3641 0.469827 12.6361 0.469829 13.5555 1.16816L14.687 2.02765C18.0108 4.55237 20.8581 7.64898 23.0957 11.1724L23.4588 11.7439C24.1836 12.8853 23.3637 14.3772 22.0116 14.3772H20.8265C20.8951 15.9528 20.8091 17.5332 20.5684 19.0954C20.3294 20.6478 18.9936 21.7937 17.4228 21.7937H14.1429V16.1427C14.1429 14.9592 13.1835 13.9999 12 13.9999C10.8166 13.9999 9.85718 14.9592 9.85718 16.1427V21.7937H6.57732C5.00664 21.7937 3.6708 20.6478 3.43174 19.0954C3.19116 17.5332 3.10507 15.9528 3.17364 14.3772H1.9883C0.636275 14.3772 -0.183646 12.8852 0.541195 11.7439L0.904247 11.1723C3.14189 7.64893 5.9893 4.55238 9.31303 2.02774L10.4447 1.16814Z" fill="black"/>
</svg>
