<svg width="24" height="22" viewBox="0 0 24 22" fill="none" xmlns="http://www.w3.org/2000/svg">
<path d="M7.05 1C3.70864 1 1 3.7354 1 7.11077C1 10.6484 2.99485 13.9859 6.29375 17.0413C7.41971 18.0835 8.63202 18.9979 9.83432 19.8189C10.2557 20.1056 10.6499 20.3656 11.0032 20.5822C11.2186 20.7145 11.3606 20.81 11.45 20.86C11.7822 21.0467 12.2178 21.0467 12.55 20.86C12.6394 20.81 12.7814 20.7145 12.9968 20.5822C13.3501 20.3656 13.7443 20.1056 14.1657 19.8189C15.368 18.9979 16.5803 18.0835 17.7063 17.0413C21.0052 13.9859 23 10.6484 23 7.11077C23 3.7354 20.2914 1 16.95 1C15.0523 1 13.1994 2.0444 12.0343 3.56876C10.8982 2.01773 9.05189 1 7.05 1Z" stroke="black"/>
</svg>
