<svg width="44" height="44" viewBox="0 0 44 44" fill="none" xmlns="http://www.w3.org/2000/svg">
<path d="M28.6458 7.33341C28.6458 8.30588 28.2595 9.23851 27.5719 9.92614C26.8843 10.6138 25.9516 11.0001 24.9792 11.0001C24.0067 11.0001 23.0741 10.6138 22.3864 9.92614C21.6988 9.23851 21.3125 8.30588 21.3125 7.33341C21.3125 6.36095 21.6988 5.42832 22.3864 4.74069C23.0741 4.05306 24.0067 3.66675 24.9792 3.66675C25.9516 3.66675 26.8843 4.05306 27.5719 4.74069C28.2595 5.42832 28.6458 6.36095 28.6458 7.33341ZM23.5519 26.0307L28.3122 30.7277C28.4947 30.9078 28.6374 31.1242 28.7311 31.3629L31.2693 37.83C31.447 38.2827 31.4377 38.7874 31.2432 39.2332C31.0488 39.6789 30.6853 40.0292 30.2326 40.2069C29.7799 40.3846 29.2752 40.3752 28.8294 40.1808C28.3836 39.9864 28.0334 39.6228 27.8557 39.1702L25.4595 33.0642L17.2755 24.9884C17.0777 24.7934 16.9269 24.556 16.8343 24.2941C16.7417 24.0323 16.7098 23.7528 16.7411 23.4768L17.3965 17.6835C15.8162 19.2547 14.597 21.4629 13.6629 24.3898C13.5931 24.6232 13.4774 24.8402 13.3228 25.0284C13.1681 25.2165 12.9775 25.3719 12.7621 25.4856C12.5467 25.5992 12.3108 25.6688 12.0682 25.6903C11.8256 25.7118 11.5812 25.6847 11.3492 25.6107C11.1171 25.5366 10.9022 25.4171 10.7169 25.259C10.5316 25.101 10.3796 24.9076 10.2699 24.6902C10.1601 24.4727 10.0948 24.2356 10.0778 23.9927C10.0607 23.7497 10.0922 23.5058 10.1704 23.2752C11.8846 17.9035 14.7308 13.883 19.5067 12.0396L19.5277 12.0313C20.7442 11.5794 22.0092 11.6161 23.1367 12.1982C24.2192 12.7582 24.9902 13.7253 25.4952 14.8088L26.0893 16.0922C26.5366 17.062 26.9124 17.8797 27.2745 18.5965C27.7814 19.6048 28.1893 20.274 28.5927 20.7433C28.9667 21.1778 29.3379 21.4455 29.8118 21.6307C30.3215 21.8296 31.0356 21.9671 32.1383 22.0001C32.3806 22.0049 32.6195 22.0578 32.8412 22.1555C33.0629 22.2532 33.263 22.394 33.43 22.5695C33.597 22.7451 33.7275 22.952 33.8141 23.1783C33.9006 23.4046 33.9414 23.6459 33.9341 23.8881C33.9269 24.1302 33.8717 24.3686 33.7717 24.5893C33.6718 24.81 33.5291 25.0088 33.3518 25.174C33.1746 25.3392 32.9664 25.4677 32.7392 25.5519C32.5121 25.6362 32.2704 25.6746 32.0283 25.6649C30.7037 25.6255 29.5277 25.4559 28.4781 25.0462C27.3937 24.6227 26.5384 23.9782 25.8106 23.1303C25.3522 22.5968 24.9489 21.9872 24.5731 21.3245L23.5519 26.0307Z" fill="#8BDFB2"/>
<path d="M16.741 27.7017L19.7798 30.6167L18.381 35.3347C18.2728 35.6998 18.0536 36.0221 17.754 36.2569L13.0478 39.9447C12.8582 40.0931 12.6412 40.2028 12.4092 40.2675C12.1772 40.3321 11.9348 40.3504 11.6957 40.3213C11.4567 40.2923 11.2257 40.2164 11.0159 40.098C10.8062 39.9797 10.6218 39.8212 10.4733 39.6316C10.3248 39.442 10.2152 39.225 10.1505 38.9931C10.0859 38.7611 10.0676 38.5186 10.0967 38.2796C10.1257 38.0405 10.2016 37.8095 10.3199 37.5998C10.4383 37.39 10.5968 37.2056 10.7864 37.0572L15.0324 33.7315L16.3111 29.414L16.741 27.7017Z" fill="#8BDFB2"/>
</svg>
