<svg width="29" height="29" viewBox="0 0 29 29" fill="none" xmlns="http://www.w3.org/2000/svg">
<path fill-rule="evenodd" clip-rule="evenodd" d="M18.2309 2.56701C16.9767 2.47363 15.396 2.47363 13.2632 2.47363C9.14325 2.47363 7.0833 2.47363 5.45838 3.1467C3.29181 4.04412 1.57049 5.76545 0.673065 7.93201C0 9.55693 0 11.6169 0 15.7368V20.1578C0 24.3261 0 26.4102 1.2949 27.7051C2.58979 28.9999 4.6739 28.9999 8.8421 28.9999H13.2632C17.3831 28.9999 19.443 28.9999 21.0679 28.3269C23.2345 27.4295 24.9558 25.7081 25.8533 23.5416C26.5263 21.9166 26.5263 19.8567 26.5263 15.7368C26.5263 13.604 26.5263 12.0232 26.4329 10.7691C26.0424 11.9723 24.9122 12.8421 23.5789 12.8421C21.922 12.8421 20.5789 11.499 20.5789 9.8421V8.42105H19.1578C17.501 8.42105 16.1578 7.07791 16.1578 5.42105C16.1578 4.08771 17.0277 2.95753 18.2309 2.56701ZM8.84198 11.7891C8.2897 11.7891 7.84198 12.2368 7.84198 12.7891C7.84198 13.3413 8.2897 13.7891 8.84198 13.7891H17.6841C18.2364 13.7891 18.6841 13.3413 18.6841 12.7891C18.6841 12.2368 18.2364 11.7891 17.6841 11.7891H8.84198ZM8.84198 17.6836C8.2897 17.6836 7.84198 18.1313 7.84198 18.6836C7.84198 19.2359 8.2897 19.6836 8.84198 19.6836H13.263C13.8153 19.6836 14.263 19.2359 14.263 18.6836C14.263 18.1313 13.8153 17.6836 13.263 17.6836H8.84198Z" fill="white"/>
<path d="M23.579 9.84211L23.579 1M19.158 5.42105H28.0001" stroke="white" stroke-width="2" stroke-linecap="round" stroke-linejoin="round"/>
</svg>
