<svg width="24" height="24" viewBox="0 0 24 24" fill="none" xmlns="http://www.w3.org/2000/svg">
<path d="M7.71302 2.91151e-07C7.18112 -0.000229378 6.66223 0.135424 6.22785 0.388266C5.79348 0.641107 5.465 0.998689 5.2877 1.41173H2.57101C1.88913 1.41173 1.23519 1.63483 0.75303 2.03196C0.270873 2.42909 0 2.9677 0 3.52933V20.4701C0 21.0317 0.270873 21.5703 0.75303 21.9675C1.23519 22.3646 1.88913 22.5877 2.57101 22.5877H6.86287C6.87623 22.4225 6.9072 22.2586 6.95543 22.0978L7.59818 19.983C7.83891 19.1898 8.33652 18.4652 9.03794 17.8866L17.3166 11.068C18.1831 10.3535 19.3432 9.93241 20.5681 9.88776V3.52933C20.5681 2.9677 20.2972 2.42909 19.815 2.03196C19.3329 1.63483 18.6789 1.41173 17.997 1.41173H15.2803C15.103 0.998689 14.7746 0.641107 14.3402 0.388266C13.9058 0.135424 13.3869 -0.000229378 12.855 2.91151e-07H7.71302ZM6.85602 2.1176C6.85602 1.93039 6.94631 1.75085 7.10703 1.61847C7.26775 1.4861 7.48573 1.41173 7.71302 1.41173H12.855C13.0823 1.41173 13.3003 1.4861 13.461 1.61847C13.6217 1.75085 13.712 1.93039 13.712 2.1176C13.712 2.3048 13.6217 2.48434 13.461 2.61672C13.3003 2.74909 13.0823 2.82346 12.855 2.82346H7.71302C7.48573 2.82346 7.26775 2.74909 7.10703 2.61672C6.94631 2.48434 6.85602 2.3048 6.85602 2.1176ZM10.2497 18.8847L18.5284 12.0661C19.1298 11.5711 19.9453 11.2932 20.7955 11.2934C21.6457 11.2937 22.461 11.5721 23.0619 12.0675C23.6629 12.5628 24.0003 13.2345 24 13.9348C23.9997 14.635 23.6616 15.3065 23.0602 15.8015L14.7816 22.6187C14.2991 23.016 13.6949 23.298 13.0333 23.4347L10.4657 23.9627C10.2104 24.0151 9.94299 24.0122 9.68943 23.9544C9.43587 23.8965 9.2048 23.7856 9.01867 23.6324C8.83253 23.4792 8.69766 23.289 8.62716 23.0802C8.55665 22.8715 8.55291 22.6512 8.6163 22.4409L9.25905 20.3261C9.42507 19.7811 9.76746 19.2835 10.2497 18.8861" fill="black"/>
</svg>
