<svg width="47" height="48" viewBox="0 0 47 48" fill="none" xmlns="http://www.w3.org/2000/svg">
<path fill-rule="evenodd" clip-rule="evenodd" d="M19.0011 42.0001H27.5366C33.5311 42.0001 36.5292 42.0001 38.6823 40.5301C39.6113 39.896 40.4115 39.0778 41.0371 38.1221C42.4757 35.9221 42.4757 32.8561 42.4757 26.7281C42.4757 20.5981 42.4757 17.5341 41.0371 15.3341C40.4115 14.3783 39.6114 13.5601 38.6823 12.9261C37.2994 11.9801 35.567 11.6421 32.9145 11.5221C31.6488 11.5221 30.5598 10.5421 30.312 9.27209C30.1226 8.34183 29.6307 7.50817 28.9192 6.91199C28.2077 6.31582 27.3204 5.99371 26.4072 6.00009H20.1305C18.2328 6.00009 16.5983 7.37009 16.2257 9.27209C15.9779 10.5421 14.8889 11.5221 13.6232 11.5221C10.9726 11.6421 9.24017 11.9821 7.85536 12.9261C6.92694 13.5602 6.12747 14.3784 5.50252 15.3341C4.06201 17.5341 4.06201 20.5981 4.06201 26.7281C4.06201 32.8561 4.06201 35.9201 5.5006 38.1221C6.12291 39.0741 6.92191 39.8921 7.85536 40.5301C10.0084 42.0001 13.0066 42.0001 19.0011 42.0001ZM23.2688 18.5461C18.8494 18.5461 15.2654 22.2081 15.2654 26.7261C15.2654 31.2461 18.8494 34.9101 23.2688 34.9101C27.6883 34.9101 31.2723 31.2461 31.2723 26.7281C31.2723 22.2081 27.6883 18.5461 23.2688 18.5461ZM23.2688 21.8181C20.6183 21.8181 18.4671 24.0161 18.4671 26.7281C18.4671 29.4381 20.6183 31.6361 23.2688 31.6361C25.9194 31.6361 28.0706 29.4381 28.0706 26.7281C28.0706 24.0161 25.9194 21.8181 23.2688 21.8181ZM32.3383 20.1821C32.3383 19.2781 33.0547 18.5461 33.9402 18.5461H36.0721C36.9556 18.5461 37.674 19.2781 37.674 20.1821C37.6699 20.6199 37.4991 21.0381 37.1991 21.3449C36.8991 21.6516 36.4945 21.8218 36.074 21.8181H33.9402C33.7318 21.8202 33.5251 21.7796 33.3319 21.6985C33.1386 21.6174 32.9626 21.4975 32.8138 21.3456C32.6651 21.1937 32.5465 21.0127 32.4649 20.8131C32.3833 20.6135 32.3403 20.399 32.3383 20.1821Z" fill="#333333"/>
</svg>
