<svg width="44" height="44" viewBox="0 0 44 44" fill="none" xmlns="http://www.w3.org/2000/svg">
<path d="M23.8334 3.66675C22.8609 3.66675 21.9283 4.05306 21.2406 4.74069C20.553 5.42832 20.1667 6.36095 20.1667 7.33341C20.1667 8.30588 20.553 9.23851 21.2406 9.92614C21.9283 10.6138 22.8609 11.0001 23.8334 11.0001C25.8684 11.0001 27.5 9.36841 27.5 7.33341C27.5 6.36095 27.1137 5.42832 26.4261 4.74069C25.7385 4.05306 24.8058 3.66675 23.8334 3.66675ZM7.33337 12.8334V16.5001H18.3334V27.5001L9.03837 36.7951L11.6234 39.4167L23.9434 27.0784L31.1667 31.4051V38.5001H34.8334V30.3784C34.8334 29.7184 34.5034 29.1317 33.9167 28.8017L27.5 24.9334V16.5001H38.5V12.8334H7.33337Z" fill="#8BDFB2"/>
</svg>
