<svg width="44" height="44" viewBox="0 0 44 44" fill="none" xmlns="http://www.w3.org/2000/svg">
<path d="M34.8388 14.6739C36.8659 14.6739 38.5091 13.0307 38.5091 11.0036C38.5091 8.97652 36.8659 7.33325 34.8388 7.33325C32.8117 7.33325 31.1685 8.97652 31.1685 11.0036C31.1685 13.0307 32.8117 14.6739 34.8388 14.6739Z" fill="#8BDFB2"/>
<path d="M34.6041 24.2348C33.5646 25.0653 32.8111 25.6667 31.1611 25.6667C29.513 25.6667 28.7998 25.0965 27.7218 24.2348C26.4751 23.2393 24.926 22 21.989 22C19.0538 22 17.5065 23.2393 16.2616 24.2348C15.1836 25.0965 14.4741 25.6667 12.8241 25.6667C11.1778 25.6667 10.4665 25.0965 9.39029 24.2367C8.14546 23.2393 6.59996 22 3.66663 22V25.6667C5.31113 25.6667 6.02246 26.2368 7.09863 27.0967C8.34346 28.094 9.89079 29.3333 12.8241 29.3333C15.7575 29.3333 17.3085 28.094 18.5533 27.0967C19.6295 26.235 20.3426 25.6667 21.989 25.6667C23.639 25.6667 24.3925 26.268 25.432 27.0985C26.6768 28.094 28.226 29.3333 31.1611 29.3333C34.0981 29.3333 35.6473 28.094 36.894 27.0985C37.972 26.2368 38.6851 25.6667 40.3333 25.6667V22C37.3981 22 35.849 23.2393 34.6041 24.2348ZM31.1611 34.8333C29.513 34.8333 28.7998 34.2632 27.7218 33.4015C26.4751 32.406 24.926 31.1667 21.989 31.1667C19.0538 31.1667 17.5065 32.406 16.2616 33.4015C15.1836 34.2632 14.4741 34.8333 12.8241 34.8333C11.1778 34.8333 10.4665 34.2632 9.39029 33.4033C8.14546 32.406 6.59996 31.1667 3.66663 31.1667V34.8333C5.31113 34.8333 6.02246 35.4035 7.09863 36.2633C8.34346 37.2607 9.89079 38.5 12.8241 38.5C15.7575 38.5 17.3085 37.2607 18.5533 36.2633C19.6295 35.4017 20.3426 34.8333 21.989 34.8333C23.639 34.8333 24.3925 35.4347 25.432 36.2652C26.6768 37.2607 28.226 38.5 31.1611 38.5C34.0981 38.5 35.6473 37.2607 36.894 36.2652C37.972 35.4035 38.6851 34.8333 40.3333 34.8333V31.1667C37.3981 31.1667 35.849 32.406 34.6041 33.4015C33.5646 34.232 32.8111 34.8333 31.1611 34.8333ZM20.1666 9.93482L24.024 13.7922L20.2528 18.5038C20.7771 18.4012 21.3455 18.3333 21.989 18.3333C24.926 18.3333 26.4751 19.5727 27.7218 20.5682C28.7998 21.4298 29.513 22 31.1611 22C32.8111 22 33.5646 21.3987 34.6041 20.5682C34.8461 20.3757 35.1065 20.1703 35.3796 19.9705L31.537 16.1388L31.5461 16.1297L21.4628 6.04632C21.2927 5.87592 21.0906 5.74074 20.8682 5.6485C20.6458 5.55627 20.4074 5.50879 20.1666 5.50879C19.9258 5.50879 19.6874 5.55627 19.465 5.6485C19.2426 5.74074 19.0406 5.87592 18.8705 6.04632L11.5371 13.3797L14.1295 15.972L20.1666 9.93482Z" fill="#8BDFB2"/>
</svg>
