<svg width="29" height="30" viewBox="0 0 29 30" fill="none" xmlns="http://www.w3.org/2000/svg">
<path d="M10.8621 25.3125H5.43106C5.19099 25.3125 4.96076 25.2137 4.791 25.0379C4.62125 24.8621 4.52588 24.6237 4.52588 24.375V19.1367C4.52547 19.015 4.54825 18.8944 4.5929 18.7818C4.63756 18.6692 4.70322 18.5668 4.78612 18.4805L18.3637 4.41799C18.4479 4.32941 18.5483 4.25906 18.659 4.21105C18.7698 4.16303 18.8886 4.13831 19.0086 4.13831C19.1287 4.13831 19.2475 4.16303 19.3582 4.21105C19.469 4.25906 19.5694 4.32941 19.6536 4.41799L24.6999 9.64455C24.7854 9.73178 24.8534 9.83577 24.8997 9.95044C24.9461 10.0651 24.97 10.1882 24.97 10.3125C24.97 10.4368 24.9461 10.5599 24.8997 10.6746C24.8534 10.7893 24.7854 10.8933 24.6999 10.9805L10.8621 25.3125Z" stroke="#FCFAEF" stroke-linecap="round" stroke-linejoin="round"/>
<path d="M15.3879 7.5L21.7241 14.0625" stroke="#FCFAEF" stroke-width="2" stroke-linecap="round" stroke-linejoin="round"/>
<path d="M24.4397 25.3125H10.8622L4.58252 18.8086" stroke="#FCFAEF" stroke-linecap="round" stroke-linejoin="round"/>
<path d="M18.5559 10.7812L7.69385 22.0312" stroke="#FCFAEF" stroke-linecap="round" stroke-linejoin="round"/>
</svg>
