<svg width="44" height="44" viewBox="0 0 44 44" fill="none" xmlns="http://www.w3.org/2000/svg">
<path d="M31.1666 31.1667H27.5V42.1667H23.8333V31.1667H19.9466L17.1233 34.7051L21.4683 39.0318L18.865 41.6351L14.5383 37.2901C13.8966 36.6667 13.53 35.8051 13.475 34.9068C13.42 34.0084 13.695 33.1101 14.2633 32.4134L15.2533 31.1667H12.8333L16.5 23.8334V18.3334C15.3633 19.1951 14.4466 20.2951 13.805 21.5601C13.1633 22.8434 12.8333 24.2367 12.8333 25.6667H9.16663C9.16663 22.2631 10.5187 18.9989 12.9254 16.5922C15.3321 14.1855 18.5963 12.8334 22 12.8334C24.4383 12.8334 26.7666 11.8617 28.49 10.1567C30.195 8.43341 31.1666 6.10508 31.1666 3.66675H34.8333C34.8333 6.08675 34.1366 8.47008 32.835 10.5051C31.5391 12.554 29.6894 14.194 27.5 15.2351V23.8334L31.1666 31.1667ZM25.6666 7.33341C25.6666 8.06675 25.4466 8.76342 25.0433 9.36842C24.64 9.97342 24.0716 10.4501 23.4116 10.7251C22.7404 11.0013 22.0023 11.0721 21.2908 10.9285C20.5793 10.7849 19.9265 10.4334 19.415 9.91841C18.9016 9.40508 18.5533 8.76341 18.4066 8.04841C18.26 7.33341 18.3333 6.60008 18.6083 5.94008C18.8833 5.26175 19.36 4.69341 19.965 4.29008C20.57 3.88675 21.2666 3.66675 22 3.66675C22.9716 3.66675 23.9066 4.05175 24.585 4.74841C25.2816 5.42675 25.6666 6.36175 25.6666 7.33341Z" fill="#8BDFB2"/>
</svg>
