<svg width="44" height="44" viewBox="0 0 44 44" fill="none" xmlns="http://www.w3.org/2000/svg">
<path d="M33.3438 38.5001C31.78 38.5001 30.2515 38.0364 28.9513 37.1676C27.6511 36.2989 26.6377 35.0641 26.0393 33.6194C25.4409 32.1747 25.2844 30.5851 25.5894 29.0514C25.8945 27.5177 26.6475 26.109 27.7532 25.0033C28.8589 23.8976 30.2677 23.1446 31.8013 22.8395C33.335 22.5344 34.9247 22.691 36.3693 23.2894C37.814 23.8878 39.0488 24.9012 39.9176 26.2014C40.7863 27.5015 41.25 29.0301 41.25 30.5938C41.2477 32.69 40.414 34.6997 38.9318 36.1819C37.4496 37.6641 35.4399 38.4978 33.3438 38.5001ZM33.3438 25.4376C32.3239 25.4376 31.327 25.74 30.4791 26.3066C29.6312 26.8731 28.9703 27.6784 28.58 28.6206C28.1897 29.5628 28.0876 30.5996 28.2866 31.5998C28.4855 32.6 28.9766 33.5187 29.6977 34.2399C30.4188 34.961 31.3376 35.4521 32.3378 35.651C33.338 35.85 34.3748 35.7479 35.317 35.3576C36.2591 34.9673 37.0644 34.3064 37.631 33.4585C38.1976 32.6106 38.5 31.6136 38.5 30.5938C38.4984 29.2268 37.9547 27.9162 36.988 26.9496C36.0214 25.9829 34.7108 25.4392 33.3438 25.4376ZM10.6563 38.5001C9.09254 38.5001 7.56395 38.0364 6.26378 37.1676C4.9636 36.2989 3.95024 35.0641 3.35183 33.6194C2.75343 32.1747 2.59686 30.5851 2.90192 29.0514C3.20698 27.5177 3.95998 26.109 5.06569 25.0033C6.1714 23.8976 7.58016 23.1446 9.11382 22.8395C10.6475 22.5344 12.2372 22.691 13.6818 23.2894C15.1265 23.8878 16.3613 24.9012 17.2301 26.2014C18.0988 27.5015 18.5625 29.0301 18.5625 30.5938C18.5602 32.69 17.7265 34.6997 16.2443 36.1819C14.7621 37.6641 12.7524 38.4978 10.6563 38.5001ZM10.6563 25.4376C9.63644 25.4376 8.63954 25.74 7.79159 26.3066C6.94365 26.8731 6.28276 27.6784 5.8925 28.6206C5.50224 29.5628 5.40012 30.5996 5.59908 31.5998C5.79803 32.6 6.28912 33.5187 7.01023 34.2399C7.73135 34.961 8.6501 35.4521 9.65032 35.651C10.6505 35.85 11.6873 35.7479 12.6295 35.3576C13.5716 34.9673 14.3769 34.3064 14.9435 33.4585C15.5101 32.6106 15.8125 31.6136 15.8125 30.5938C15.8109 29.2268 15.2672 27.9162 14.3005 26.9496C13.3339 25.9829 12.0233 25.4392 10.6563 25.4376ZM27.5 11.0001C27.8622 11.0013 28.2211 10.9308 28.5559 10.7925C28.8906 10.6542 29.1947 10.4509 29.4504 10.1944C29.7061 9.93787 29.9085 9.63319 30.0457 9.29799C30.183 8.96279 30.2524 8.6037 30.25 8.24149C30.254 7.8811 30.1861 7.52352 30.0503 7.18967C29.9145 6.85582 29.7135 6.55239 29.459 6.29714C29.2046 6.04189 28.9018 5.83993 28.5684 5.70307C28.235 5.56622 27.8776 5.49721 27.5172 5.50009C27.1561 5.49896 26.7982 5.56897 26.4642 5.70613C26.1301 5.84329 25.8263 6.0449 25.5701 6.29947C25.314 6.55403 25.1105 6.85655 24.9712 7.18977C24.832 7.52298 24.7597 7.88036 24.7586 8.24149C24.7575 8.60263 24.8275 8.96045 24.9646 9.29453C25.1018 9.6286 25.3034 9.93239 25.558 10.1886C25.8125 10.4447 26.1151 10.6482 26.4483 10.7875C26.7815 10.9267 27.1389 10.999 27.5 11.0001Z" fill="#8BDFB2"/>
<path d="M31.5863 16.5H27.8257C27.764 16.5 27.7035 16.4834 27.6504 16.452C27.5973 16.4205 27.5537 16.3754 27.5241 16.3213L24.7964 11.3223C24.6042 10.9508 24.3273 10.6298 23.9879 10.3852C23.6486 10.1406 23.2565 9.97939 22.8433 9.91454C22.4301 9.84969 22.0074 9.88304 21.6095 10.0119C21.2116 10.1408 20.8496 10.3615 20.5528 10.6563L14.5492 16.7063C14.0448 17.2211 13.7586 17.9106 13.75 18.6313C13.75 20.1266 14.8328 20.6594 15.3398 20.9602C17.7891 22.3713 19.5138 23.4034 20.46 23.9766C20.5103 24.0072 20.5519 24.0502 20.5808 24.1015C20.6097 24.1529 20.6249 24.2107 20.625 24.2696V30.2096C20.625 30.9495 21.1939 31.5846 21.9338 31.6216C22.1196 31.6305 22.3053 31.6017 22.4796 31.5368C22.6539 31.472 22.8132 31.3724 22.9479 31.2442C23.0826 31.116 23.19 30.9618 23.2634 30.7909C23.3368 30.62 23.3748 30.436 23.375 30.25V22.8594C23.3751 22.6411 23.3233 22.4259 23.2238 22.2317C23.1242 22.0374 22.9799 21.8696 22.8027 21.7422L19.623 19.4554C19.5831 19.4269 19.5497 19.3901 19.5252 19.3476C19.5007 19.305 19.4856 19.2578 19.4808 19.2089C19.4761 19.1601 19.4819 19.1108 19.4978 19.0644C19.5137 19.0179 19.5394 18.9755 19.5731 18.9398L23.1825 15.0906C23.2195 15.051 23.2654 15.0208 23.3163 15.0022C23.3672 14.9837 23.4218 14.9775 23.4756 14.9842C23.5294 14.9908 23.5809 15.01 23.6258 15.0403C23.6708 15.0706 23.7079 15.1111 23.7342 15.1585L25.6094 18.5428C25.7286 18.7573 25.903 18.936 26.1145 19.0604C26.3261 19.1847 26.5671 19.2502 26.8125 19.25H31.625C31.8113 19.2502 31.9956 19.2126 32.1669 19.1394C32.3382 19.0662 32.4929 18.959 32.6214 18.8242C32.75 18.6894 32.8499 18.5299 32.915 18.3554C32.98 18.1808 33.009 17.9949 33 17.8088C32.9639 17.0689 32.3263 16.5 31.5863 16.5Z" fill="#8BDFB2"/>
</svg>
