<svg width="44" height="44" viewBox="0 0 44 44" fill="none" xmlns="http://www.w3.org/2000/svg">
<path d="M24.75 10.0833C26.7483 10.0833 28.4167 8.39667 28.4167 6.41667C28.4167 5.44421 28.0304 4.51158 27.3427 3.82394C26.6551 3.13631 25.7225 2.75 24.75 2.75C22.715 2.75 21.0833 4.36333 21.0833 6.41667C21.0833 8.39667 22.715 10.0833 24.75 10.0833ZM18.1317 35.53L19.965 27.5L23.8333 31.1667V42.1667H27.5V28.4167L23.6317 24.75L24.75 19.25C26.0062 20.6894 27.556 21.8432 29.2953 22.6337C31.0345 23.4243 32.9229 23.8333 34.8333 23.8333V20.1667C31.3317 20.1667 28.4167 18.3333 26.9317 15.73L25.0983 12.8333C24.365 11.6967 23.265 11 22 11C21.4317 11 21.0833 11.1467 20.515 11.1467L11 15.18V23.8333H14.6667V17.5633L17.9483 16.28L15.015 31.1667L6.03167 29.3333L5.29834 33L18.1317 35.53Z" fill="#8BDFB2"/>
</svg>
