<svg width="38" height="43" viewBox="0 0 38 43" fill="none" xmlns="http://www.w3.org/2000/svg">
<path d="M5.39793 3.12501C5.30948 4.60344 5.5263 6.08426 6.0349 7.47527C6.54349 8.86628 7.33296 10.1377 8.35418 11.2104C6.36951 11.7795 4.59264 12.9123 3.23916 14.4713C1.88568 16.0304 1.01375 17.9488 0.729181 19.9938C0.0429646 24.9011 1.04969 29.8958 3.58335 34.1542L4.31251 35.3833L4.4021 35.5146L7.3521 39.4854C7.97692 40.327 8.77768 41.0223 9.69861 41.5229C10.6195 42.0234 11.6385 42.3173 12.6846 42.3839C13.7306 42.4505 14.7786 42.2884 15.7556 41.9087C16.7326 41.529 17.6151 40.9409 18.3417 40.1854C18.4266 40.0971 18.5285 40.0268 18.6413 39.9788C18.7541 39.9308 18.8754 39.906 18.9979 39.906C19.1205 39.906 19.2418 39.9308 19.3546 39.9788C19.4673 40.0268 19.5692 40.0971 19.6542 40.1854C20.3807 40.9409 21.2632 41.529 22.2402 41.9087C23.2172 42.2884 24.2652 42.4505 25.3113 42.3839C26.3574 42.3173 27.3763 42.0234 28.2973 41.5229C29.2182 41.0223 30.0189 40.327 30.6438 39.4854L33.5938 35.5125L33.6813 35.3813L34.4125 34.1521C36.9474 29.8957 37.9563 24.9026 37.2729 19.9958C37.0712 18.55 36.5749 17.161 35.8147 15.9148C35.0544 14.6686 34.0465 13.5916 32.8533 12.7507C31.66 11.9098 30.3068 11.3227 28.8775 11.0259C27.4482 10.729 25.9732 10.7287 24.5438 11.025L20.5833 11.8458H20.5771C20.6396 10.2208 20.8938 8.47084 21.3917 6.97501C21.9958 5.16668 22.8333 4.07918 23.7667 3.69168C24.1493 3.53199 24.4528 3.22685 24.6105 2.84338C24.7681 2.45991 24.767 2.02951 24.6073 1.64688C24.4476 1.26425 24.1425 0.96073 23.759 0.803082C23.3755 0.645434 22.9451 0.646577 22.5625 0.806259C20.3708 1.72084 19.125 3.88959 18.4271 5.98543L18.3313 6.28126C17.8188 5.28956 17.1561 4.38302 16.3667 3.59376C15.2863 2.51197 13.9884 1.67209 12.5589 1.12975C11.1295 0.58742 9.60107 0.355012 8.07501 0.447926C7.37858 0.488013 6.72108 0.782314 6.22724 1.27501C5.7334 1.7677 5.43756 2.42451 5.39585 3.12084M11.4917 19.4021C10.7688 19.5458 10.1063 20.0542 9.69168 21.0229C9.26876 22.0104 9.11876 23.475 9.57501 25.3021C9.66881 25.7017 9.6016 26.1221 9.38792 26.4726C9.17424 26.823 8.83124 27.0753 8.43306 27.1749C8.03488 27.2745 7.61349 27.2135 7.25997 27.0049C6.90645 26.7964 6.64918 26.4571 6.54376 26.0604C5.96043 23.7229 6.07085 21.5396 6.81876 19.7917C7.57501 18.0271 8.99585 16.7125 10.8792 16.3375C11.0833 16.2893 11.295 16.2827 11.5017 16.3181C11.7084 16.3535 11.9059 16.4301 12.0824 16.5434C12.2588 16.6567 12.4107 16.8044 12.5289 16.9776C12.6471 17.1509 12.7292 17.3461 12.7703 17.5518C12.8114 17.7574 12.8107 17.9692 12.7683 18.1746C12.7258 18.38 12.6424 18.5747 12.5231 18.7472C12.4038 18.9196 12.251 19.0663 12.0738 19.1785C11.8966 19.2906 11.6986 19.3681 11.4917 19.4021Z" fill="#FFD554"/>
</svg>
