<svg width="24" height="24" viewBox="0 0 24 24" fill="none" xmlns="http://www.w3.org/2000/svg">
<path d="M12.1499 16.5V18.6" stroke="black" stroke-linecap="round" stroke-linejoin="round"/>
<path d="M7.15015 22H17.1501V21C17.1501 19.9 16.2501 19 15.1501 19H9.15015C8.05015 19 7.15015 19.9 7.15015 21V22V22Z" stroke="black" stroke-miterlimit="10"/>
<path d="M6.1499 22.0005H18.1499" stroke="black" stroke-linecap="round" stroke-linejoin="round"/>
<path d="M12 15.9995C8.13 15.9995 5 12.8695 5 8.99951V5.99951C5 3.78951 6.79 1.99951 9 1.99951H15C17.21 1.99951 19 3.78951 19 5.99951V8.99951C19 12.8695 15.87 15.9995 12 15.9995Z" stroke="black" stroke-linecap="round" stroke-linejoin="round"/>
<path d="M5.46979 11.6496C4.71979 11.4096 4.05979 10.9696 3.53979 10.4496C2.63979 9.44961 2.03979 8.24961 2.03979 6.84961C2.03979 5.44961 3.13979 4.34961 4.53979 4.34961H5.18979C4.98979 4.80961 4.88979 5.31961 4.88979 5.84961V8.84961C4.88979 9.84961 5.09979 10.7896 5.46979 11.6496Z" stroke="black" stroke-linecap="round" stroke-linejoin="round"/>
<path d="M18.53 11.6496C19.28 11.4096 19.94 10.9696 20.46 10.4496C21.36 9.44961 21.96 8.24961 21.96 6.84961C21.96 5.44961 20.86 4.34961 19.46 4.34961H18.81C19.01 4.80961 19.11 5.31961 19.11 5.84961V8.84961C19.11 9.84961 18.9 10.7896 18.53 11.6496Z" stroke="black" stroke-linecap="round" stroke-linejoin="round"/>
</svg>
