<svg width="72" height="118" viewBox="0 0 72 118" fill="none" xmlns="http://www.w3.org/2000/svg">
<path fill-rule="evenodd" clip-rule="evenodd" d="M29.7794 1.51077C22.2444 5.59877 22.3664 17.4898 29.9834 21.4288C35.7254 24.3978 42.6975 22.3978 45.4995 16.9788C50.8335 6.66377 39.9744 -4.02123 29.7794 1.51077ZM25.5164 28.6638C21.3734 29.6698 7.01545 42.2068 4.49645 47.0168C3.75545 48.4318 2.83345 53.4868 2.44645 58.2508C1.65745 67.9818 2.42745 69.9458 7.03145 69.9458C10.4084 69.9458 10.9854 68.6518 11.7184 59.4458C12.3094 52.0058 14.5914 47.9458 18.1794 47.9458C19.8394 47.9458 19.9445 48.6928 19.4025 56.6958C19.0645 61.6958 19.2374 66.5328 19.8074 67.9828C20.3564 69.3778 24.1684 74.7778 28.2785 79.9828C33.1604 86.1638 38.0414 94.0138 42.3524 102.619C49.0614 116.008 50.7134 117.812 55.0145 116.447C59.0445 115.168 58.4294 111.814 51.6564 98.1528C48.0824 90.9428 43.2844 82.2868 40.9954 78.9148L36.8335 72.7858L38.3544 64.6158C40.7214 51.9008 41.2704 38.4888 39.5874 34.4628C37.4454 29.3348 31.9964 27.0898 25.5164 28.6638ZM45.8035 46.5848C45.4415 51.7498 45.6894 52.7728 47.8914 55.1958C50.2924 57.8378 50.7744 57.9458 60.1684 57.9458C69.0284 57.9458 70.0495 57.7518 71.0525 55.8788C71.9125 54.2708 71.8044 53.2708 70.5644 51.3788C69.1204 49.1748 68.2934 48.9458 61.7814 48.9458C54.7074 48.9458 54.5244 48.8798 50.4035 44.8348L46.2144 40.7238L45.8035 46.5848ZM18.5625 82.4878C17.5945 88.9418 17.1225 89.7398 7.86045 100.568C0.0334501 109.719 -1.44155 113.088 1.21645 115.746C4.20245 118.732 6.83445 117.042 16.0905 106.196C21.1355 100.284 25.9074 93.9408 26.6934 92.1008C28.2824 88.3818 28.0444 87.7868 22.2524 80.9878L19.3055 77.5298L18.5625 82.4878Z" fill="black"/>
</svg>
