<svg width="32" height="35" viewBox="0 0 32 35" fill="none" xmlns="http://www.w3.org/2000/svg">
<path d="M17.9868 7.96515C18.5143 7.96515 19.0298 7.79466 19.4684 7.47523C19.9069 7.15581 20.2487 6.70179 20.4505 6.17061C20.6524 5.63942 20.7052 5.05491 20.6023 4.49101C20.4994 3.9271 20.2454 3.40912 19.8725 3.00257C19.4995 2.59602 19.0244 2.31915 18.5071 2.20698C17.9898 2.09481 17.4536 2.15238 16.9664 2.37241C16.4791 2.59243 16.0626 2.96503 15.7696 3.44309C15.4766 3.92114 15.3202 4.48319 15.3202 5.05814C15.3223 5.82842 15.6039 6.5665 16.1036 7.11117C16.6032 7.65584 17.2803 7.96285 17.9868 7.96515V7.96515ZM13.1868 28.1689L14.5202 21.7735L17.3202 24.6805V33.4015H19.9868V22.5002L17.1868 19.5932L17.9868 15.2327C18.9017 16.3723 20.0291 17.2859 21.2937 17.9125C22.5583 18.5392 23.931 18.8644 25.3202 18.8665V15.9594C24.1676 15.9785 23.0308 15.6661 22.0243 15.0537C21.0177 14.4412 20.177 13.5504 19.5868 12.471L18.2535 10.1454C18.0172 9.716 17.6859 9.35798 17.2899 9.10407C16.894 8.85016 16.446 8.70846 15.9868 8.69191C15.5868 8.69191 15.3202 8.83726 14.9202 8.83726L7.98685 12.035V18.8665H10.6535V13.9245L13.0535 12.9071L10.9202 24.6805L4.38685 23.227L3.85352 26.134L13.1868 28.1689Z" fill="#808080"/>
</svg>
