<svg width="44" height="44" viewBox="0 0 44 44" fill="none" xmlns="http://www.w3.org/2000/svg">
<path d="M30.25 10.0833C31.2224 10.0833 32.1551 9.69703 32.8427 9.00939C33.5303 8.32176 33.9166 7.38913 33.9166 6.41667C33.9166 5.44421 33.5303 4.51158 32.8427 3.82394C32.1551 3.13631 31.2224 2.75 30.25 2.75C29.2775 2.75 28.3449 3.13631 27.6572 3.82394C26.9696 4.51158 26.5833 5.44421 26.5833 6.41667C26.5833 7.38913 26.9696 8.32176 27.6572 9.00939C28.3449 9.69703 29.2775 10.0833 30.25 10.0833ZM23.65 35.5667L25.4833 27.5L29.3333 31.1667V42.1667H33V28.4167L29.15 24.75L30.25 19.25C31.5062 20.6894 33.056 21.8432 34.7952 22.6337C36.5345 23.4243 38.4228 23.8333 40.3333 23.8333V20.1667C37.1066 20.2217 34.1 18.535 32.45 15.7667L30.6166 12.8333C29.9566 11.7333 28.7833 11 27.5 11C26.95 11 26.5833 11.1833 26.0333 11.1833L16.5 15.2167V23.8333H20.1666V17.6L23.4666 16.3167L20.5333 31.1667L11.55 29.3333L10.8166 33L23.65 35.5667ZM7.33329 16.5C6.84706 16.5 6.38075 16.3068 6.03693 15.963C5.69311 15.6192 5.49996 15.1529 5.49996 14.6667C5.49996 14.1804 5.69311 13.7141 6.03693 13.3703C6.38075 13.0265 6.84706 12.8333 7.33329 12.8333H12.8333V16.5H7.33329ZM9.16663 9.16667C8.6804 9.16667 8.21408 8.97351 7.87026 8.6297C7.52645 8.28588 7.33329 7.81956 7.33329 7.33333C7.33329 6.8471 7.52645 6.38079 7.87026 6.03697C8.21408 5.69315 8.6804 5.5 9.16663 5.5H18.3333V9.16667H9.16663ZM5.49996 23.8333C5.01373 23.8333 4.54741 23.6402 4.2036 23.2964C3.85978 22.9525 3.66663 22.4862 3.66663 22C3.66663 21.5138 3.85978 21.0475 4.2036 20.7036C4.54741 20.3598 5.01373 20.1667 5.49996 20.1667H12.8333V23.8333H5.49996Z" fill="#8BDFB2"/>
</svg>
