<svg width="44" height="44" viewBox="0 0 44 44" fill="none" xmlns="http://www.w3.org/2000/svg">
<path d="M6.65948 1.5862L5.13615 1.85492L5.93743 6.39981C5.48447 6.47035 5.03186 6.54311 4.57962 6.61809L4.02077 3.44786L2.49744 3.71633L3.05517 6.8784C2.56217 6.96525 2.06957 7.0544 1.57739 7.14584L1.8603 8.66659C2.35255 8.57498 2.83973 8.48698 3.32364 8.40155L3.93002 11.8408L5.45343 11.5723L4.84843 8.14082C5.30424 8.06525 5.75679 7.99249 6.20607 7.92254L7.04628 12.6878L8.5697 12.4191L7.73636 7.69343C8.45678 7.59014 9.17811 7.49331 9.90027 7.40296C11.2357 11.3896 12.882 15.9963 15.6526 18.9571C16.402 21.5697 16.5 23.0313 18.4388 26.6407C16.5 29.9063 15.125 35.4063 14.3696 40.4766L10.2446 40.9922V42.2813H16.5C17.875 38.1563 22 29.9063 22 29.9063C22 29.9063 26.125 38.1563 27.5 42.2813H33.7554V40.9922L29.6304 40.4766C28.875 35.4063 27.5 29.9063 25.2656 26.6407C27.5 23.0313 27.3432 21.5201 28.3448 18.9598C31.1163 15.9991 32.7637 11.3909 34.0998 7.40313C34.8142 7.49251 35.5346 7.58876 36.2637 7.6936L35.4304 12.4193L36.9539 12.6878L37.7941 7.92254C38.2435 7.99249 38.6961 8.06525 39.1519 8.14082L38.5468 11.5723L40.0702 11.8409L40.6765 8.40164C41.1604 8.48698 41.6476 8.57498 42.1399 8.66659L42.4228 7.14584C41.9261 7.05345 41.4339 6.96451 40.9451 6.87831L41.5028 3.71616L39.9794 3.4476L39.4205 6.61784C38.9683 6.54276 38.5156 6.47 38.0627 6.39955L38.864 1.85466L37.3406 1.58594L36.5323 6.1707C31.4516 5.44075 26.725 5.0738 22 5.0738C17.2752 5.0738 12.5483 5.44075 7.46781 6.17096L6.65948 1.5862ZM22 6.61552C25.0534 6.61552 28.1076 6.77278 31.266 7.08499C30.0558 10.0806 27.9613 13.4017 25.8345 15.8478C24.9471 17.1248 23.577 17.961 22 17.961C20.4231 17.961 19.0529 17.1248 18.1655 15.8478C16.0387 13.4017 13.9442 10.0805 12.7341 7.08499C15.8923 6.77278 18.9465 6.61552 22 6.61552ZM22 8.33598C20.2095 8.33598 18.6484 10.0754 18.6484 12.375C18.6484 14.6747 20.2095 16.4141 22 16.4141C23.7905 16.4141 25.3516 14.6747 25.3516 12.375C25.3516 10.0754 23.7905 8.33598 22 8.33598Z" fill="#8BDFB2"/>
</svg>
