<svg width="42" height="40" viewBox="0 0 42 40" fill="none" xmlns="http://www.w3.org/2000/svg">
<path d="M39.75 16.3125H38.1152C37.7226 12.0447 35.7497 8.07752 32.5834 5.18911C29.4171 2.3007 25.2858 0.699463 21 0.699463C16.7142 0.699463 12.5829 2.3007 9.41662 5.18911C6.25031 8.07752 4.27737 12.0447 3.88477 16.3125H2.25C1.8356 16.3125 1.43817 16.4771 1.14515 16.7702C0.85212 17.0632 0.6875 17.4606 0.6875 17.875C0.694365 21.5909 1.71698 25.2341 3.64475 28.4108C5.57252 31.5875 8.33208 34.1767 11.625 35.8984V36.625C11.625 37.4538 11.9542 38.2487 12.5403 38.8347C13.1263 39.4208 13.9212 39.75 14.75 39.75H27.25C28.0788 39.75 28.8737 39.4208 29.4597 38.8347C30.0458 38.2487 30.375 37.4538 30.375 36.625V35.8984C33.6679 34.1767 36.4275 31.5875 38.3553 28.4108C40.283 25.2341 41.3056 21.5909 41.3125 17.875C41.3125 17.4606 41.1479 17.0632 40.8549 16.7702C40.5618 16.4771 40.1644 16.3125 39.75 16.3125ZM29.8828 6.98243C30.2409 7.2754 30.584 7.58464 30.9121 7.91016C26.7527 9.37335 23.3154 12.3805 21.3125 16.3086H15.5508C16.5274 13.5712 18.3253 11.202 20.6989 9.5247C23.0725 7.84744 25.9061 6.94389 28.8125 6.93751C29.1699 6.93751 29.5273 6.95509 29.8828 6.98243ZM24.9297 16.3125C26.8241 13.4705 29.69 11.417 32.9902 10.5371C34.0693 12.2923 34.7463 14.2646 34.9727 16.3125H24.9297ZM21 3.81251C22.2538 3.81364 23.5019 3.98246 24.7109 4.31446C21.7665 5.04488 19.0666 6.53856 16.8834 8.64497C14.7001 10.7514 13.1108 13.3961 12.2754 16.3125H7.02734C7.41493 12.8767 9.05336 9.70366 11.6303 7.39833C14.2072 5.093 17.5424 3.81662 21 3.81251Z" fill="#FFD554"/>
</svg>
