<svg width="24" height="24" viewBox="0 0 24 24" fill="none" xmlns="http://www.w3.org/2000/svg">
<path d="M14.4 2.28571H7.2V0H14.4V2.28571ZM13.44 15.4286V15.7029C12.6 16.3886 12 17.4171 12 18.5143V22.5143C12 22.9943 12.108 23.4629 12.288 23.8971C11.796 23.9543 11.304 24 10.8 24C7.93566 24 5.18864 22.9163 3.16325 20.9874C1.13785 19.0584 0 16.4422 0 13.7143C0 10.9863 1.13785 8.37013 3.16325 6.44119C5.18864 4.51224 7.93566 3.42857 10.8 3.42857C13.344 3.42857 15.684 4.27429 17.544 5.71429L19.248 4.06857C19.86 4.57143 20.4 5.09714 20.94 5.68L19.236 7.30286C20.052 8.27429 20.676 9.39429 21.084 10.6057C20.484 10.4114 19.86 10.2857 19.2 10.2857C16.08 10.2857 13.44 12.64 13.44 15.4286ZM12 6.85714H9.6V14.8571H12V6.85714ZM24 18.6286V22.6286C24 23.3143 23.28 24 22.44 24H15.84C15.12 24 14.4 23.3143 14.4 22.5143V18.5143C14.4 17.8286 15.12 17.1429 15.84 17.1429V15.4286C15.84 13.8286 17.52 12.5714 19.2 12.5714C20.88 12.5714 22.56 13.8286 22.56 15.4286V17.1429C23.28 17.1429 24 17.8286 24 18.6286ZM21 15.4286C21 14.5143 20.16 13.9429 19.2 13.9429C18.24 13.9429 17.4 14.5143 17.4 15.4286V17.1429H21V15.4286Z" fill="black"/>
</svg>
